<svg xmlns="http://www.w3.org/2000/svg" viewBox="0 0 32 32">
  <rect width="32" height="32" rx="6" fill="#0b0a08"/>
  <path d="M16 8.5c-2.3-1.8-5.7-2.3-8.9-1.4v16.2c3.2-.9 6.6-.4 8.9 1.4 2.3-1.8 5.7-2.3 8.9-1.4V7.1c-3.2-.9-6.6-.4-8.9 1.4Z" fill="none" stroke="#d4ac62" stroke-width="1.75" stroke-linejoin="round"/>
  <path d="M16 8.5v16" stroke="#d4ac62" stroke-width="1.75"/>
  <path d="M11.5 13.4l.9 2.2 2.2.9-2.2.9-.9 2.2-.9-2.2-2.2-.9 2.2-.9.9-2.2Z" fill="#d4ac62"/>
  <path d="M19.3 13.7h3.2M19.3 16.8h3.2M19.3 19.9h2.2" stroke="#d4ac62" stroke-width="1.4" stroke-linecap="round"/>
</svg>
